<svg
   width="100"
   height="100"
   viewBox="0 0 100 100"
   xmlns="http://www.w3.org/2000/svg"
   xmlns:svg="http://www.w3.org/2000/svg">
  
  <g>
    <path
       style="fill:currentColor;fill-opacity:1"
       d="M 50,0 A 50,50 0 0 0 0.59375,42.5 H 26.181641 A 25,25 0 0 1 50,25 25,25 0 0 1 73.84375,42.5 H 99.429688 A 50,50 0 0 0 50,0 Z M 0.59375,57.5 A 50,50 0 0 0 50,100 50,50 0 0 0 99.40625,57.5 H 73.818359 A 25,25 0 0 1 50,75 25,25 0 0 1 26.181641,57.5 Z" />
    <circle
       style="fill:currentColor;fill-opacity:1"
       cx="50"
       cy="50"
       r="15" />
  </g>
</svg>
